<svg version="1.1" id="Layer_1" xmlns="http://www.w3.org/2000/svg" x="0" y="0" viewBox="0 0 389 257" style="enable-background:new 0 0 389 257" xml:space="preserve"><style>.st0{fill:#ed872d}.st3{fill:#fff}</style><path class="st0" d="M2195.2 612.5h878.7v623.6h-878.7z"/><path style="fill:#f2cda5" d="M2195.2-171.2h878.7v623.6h-878.7z"/><path d="M2460.9 8.7h-4.4v12.2h-2.3V8.7h-4.4V6.8h11.1v1.9zM2478.8 20.8h-2.1c-.4 0-.7-.2-.9-.5l-3.3-4.7c-.1-.2-.2-.3-.4-.4-.1-.1-.3-.1-.6-.1h-1.3v5.7h-2.3v-14h4.1c.9 0 1.7.1 2.4.3.7.2 1.2.5 1.6.8.4.4.8.8.9 1.2.2.5.3 1 .3 1.6 0 .5-.1.9-.2 1.4s-.4.8-.6 1.1c-.3.4-.6.6-1 .9s-.9.4-1.4.6c.3.2.5.4.7.7l4.1 5.4zm-6.6-7.3c.5 0 1-.1 1.4-.2.4-.1.7-.3 1-.5s.4-.5.6-.8c.1-.3.2-.7.2-1.1 0-.8-.2-1.4-.8-1.8s-1.3-.6-2.3-.6h-1.9v5h1.8zM2497.6 20.8h-1.8c-.2 0-.4-.1-.5-.1-.1-.1-.2-.2-.3-.4l-1.2-3.1h-6.1l-1.2 3.1c-.1.1-.1.2-.3.4-.1.1-.3.2-.5.2h-1.8l5.6-14.1h2.3l5.8 14zm-4.4-5.2-1.9-5.1c-.1-.4-.3-.9-.5-1.5-.1.3-.1.6-.2.9-.1.3-.2.5-.2.7l-1.9 5.1 4.7-.1zM2516.1 6.8v14.1h-1.2c-.2 0-.3 0-.4-.1s-.2-.2-.4-.3l-7.7-9.9V21h-2V6.8h1.4c.1 0 .1 0 .2.1.1 0 .1.1.2.1l.2.2 7.7 9.9V6.8h2zM2532.1 9.2c-.1.1-.1.2-.2.3-.1.1-.2.1-.3.1s-.3-.1-.4-.2c-.1-.1-.3-.2-.6-.4-.2-.1-.5-.2-.8-.4-.3-.1-.7-.2-1.1-.2-.4 0-.7.1-1 .1-.3.1-.6.2-.8.4s-.4.4-.5.6c-.1.2-.1.5-.1.8 0 .4.1.7.3.9s.4.4.8.6.7.3 1.1.4c.4.1.8.3 1.2.4.4.1.8.3 1.2.5s.8.4 1.1.7.6.6.8 1 .3.9.3 1.5-.1 1.2-.3 1.8c-.2.6-.5 1-.9 1.4s-.9.7-1.5 1c-.6.2-1.3.4-2 .4-.4 0-.9 0-1.3-.1s-.8-.2-1.2-.4c-.4-.2-.8-.4-1.1-.6s-.6-.5-.9-.8l.7-1.1c.1-.1.1-.2.2-.2.1-.1.2-.1.3-.1s.3.1.5.2.4.3.7.5.6.3.9.5c.4.1.8.2 1.3.2.8 0 1.5-.2 1.9-.6s.7-1 .7-1.7c0-.4-.1-.7-.3-1s-.4-.5-.8-.6-.7-.3-1.1-.4c-.4-.1-.8-.2-1.2-.4-.4-.1-.8-.3-1.2-.5s-.8-.4-1.1-.7-.6-.6-.8-1.1c-.2-.4-.3-1-.3-1.6 0-.5.1-1 .3-1.5s.5-.9.9-1.3.9-.7 1.4-.9c.6-.2 1.2-.3 1.9-.3.8 0 1.6.1 2.2.4.7.3 1.2.6 1.8 1.1l-.7 1.3zM2545.1 6.8c.9 0 1.7.1 2.4.3s1.2.5 1.7.9c.4.4.8.9 1 1.4.2.6.3 1.1.3 1.8s-.1 1.3-.3 1.8-.6 1-1 1.4-1 .7-1.7.9-1.4.3-2.3.3h-2.1v5.1h-2.3V6.8h4.3zm0 7.1c.5 0 .9-.1 1.3-.2s.7-.3 1-.6.4-.5.6-.9c.1-.3.2-.7.2-1.1 0-.4-.1-.8-.2-1.1-.1-.3-.3-.6-.6-.8s-.6-.4-1-.5-.8-.2-1.4-.2h-2.1v5.4h2.2zM2571.1 13.8c0 1-.2 2-.5 2.9-.3.9-.8 1.6-1.4 2.3-.6.6-1.4 1.1-2.2 1.5-.9.4-1.8.5-2.9.5s-2-.2-2.9-.5c-.9-.4-1.6-.9-2.2-1.5-.6-.6-1.1-1.4-1.4-2.3-.3-.9-.5-1.8-.5-2.9 0-1 .2-2 .5-2.9s.8-1.6 1.4-2.3c.6-.6 1.4-1.1 2.2-1.5.9-.4 1.8-.5 2.9-.5s2 .2 2.9.5c.9.4 1.6.9 2.2 1.5.6.6 1.1 1.4 1.4 2.3s.5 1.9.5 2.9zm-2.3 0c0-.8-.1-1.5-.3-2.2s-.5-1.2-.9-1.6c-.4-.4-.9-.8-1.5-1s-1.2-.4-1.9-.4-1.4.1-1.9.4c-.6.2-1.1.6-1.5 1s-.7 1-.9 1.6-.3 1.4-.3 2.2.1 1.5.3 2.2c.2.6.5 1.2.9 1.6s.9.8 1.5 1 1.2.4 1.9.4 1.4-.1 1.9-.4c.6-.2 1.1-.6 1.5-1s.7-1 .9-1.6.3-1.4.3-2.2zM2589.6 20.8h-2.1c-.4 0-.7-.2-.9-.5l-3.3-4.7c-.1-.2-.2-.3-.4-.4-.1-.1-.3-.1-.6-.1h-1.3v5.7h-2.3v-14h4.1c.9 0 1.7.1 2.4.3.7.2 1.2.5 1.6.8.4.4.8.8.9 1.2.2.5.3 1 .3 1.6 0 .5-.1.9-.2 1.4s-.4.8-.6 1.1c-.3.4-.6.6-1 .9s-.9.4-1.4.6c.3.2.5.4.7.7l4.1 5.4zm-6.6-7.3c.5 0 1-.1 1.4-.2.4-.1.7-.3 1-.5s.4-.5.6-.8c.1-.3.2-.7.2-1.1 0-.8-.2-1.4-.8-1.8s-1.3-.6-2.3-.6h-1.9v5h1.8zM2605.8 8.7h-4.4v12.2h-2.3V8.7h-4.4V6.8h11.1v1.9zM2623.4 20.8h-1.8c-.2 0-.4-.1-.5-.1-.1-.1-.2-.2-.3-.4l-1.2-3.1h-6.1l-1.2 3.1c-.1.1-.1.2-.3.4-.1.1-.3.2-.5.2h-1.8l5.6-14.1h2.3l5.8 14zm-4.3-5.2-1.9-5.1c-.2-.4-.3-.9-.5-1.5-.1.3-.1.6-.2.9-.1.3-.2.5-.2.7l-1.9 5.1 4.7-.1zM2642.7 13.8c0 1-.2 2-.5 2.9-.3.9-.8 1.6-1.4 2.2-.6.6-1.4 1.1-2.2 1.4-.9.3-1.8.5-2.9.5h-5.3v-14h5.3c1.1 0 2 .2 2.9.5s1.6.8 2.2 1.4c.6.6 1.1 1.4 1.4 2.2.3.9.5 1.9.5 2.9zm-2.3 0c0-.8-.1-1.5-.3-2.2s-.5-1.2-.9-1.6c-.4-.4-.9-.8-1.5-1s-1.2-.4-1.9-.4h-3V19h3c.7 0 1.4-.1 1.9-.4.6-.2 1.1-.6 1.5-1s.7-1 .9-1.6c.2-.6.3-1.4.3-2.2zM2663.7 13.8c0 1-.2 2-.5 2.9-.3.9-.8 1.6-1.4 2.3-.6.6-1.4 1.1-2.2 1.5-.9.4-1.8.5-2.9.5s-2-.2-2.9-.5c-.9-.4-1.6-.9-2.2-1.5-.6-.6-1.1-1.4-1.4-2.3-.3-.9-.5-1.8-.5-2.9 0-1 .2-2 .5-2.9s.8-1.6 1.4-2.3c.6-.6 1.4-1.1 2.2-1.5.9-.4 1.8-.5 2.9-.5s2 .2 2.9.5c.9.4 1.6.9 2.2 1.5s1.1 1.4 1.4 2.3c.3.9.5 1.9.5 2.9zm-2.3 0c0-.8-.1-1.5-.3-2.2s-.5-1.2-.9-1.6c-.4-.4-.9-.8-1.5-1s-1.2-.4-1.9-.4-1.4.1-1.9.4c-.6.2-1.1.6-1.5 1s-.7 1-.9 1.6-.3 1.4-.3 2.2.1 1.5.3 2.2c.2.6.5 1.2.9 1.6s.9.8 1.5 1 1.2.4 1.9.4 1.4-.1 1.9-.4 1.1-.6 1.5-1 .7-1 .9-1.6.3-1.4.3-2.2zM2682.2 20.8h-2.1c-.4 0-.7-.2-.9-.5l-3.3-4.7c-.1-.2-.2-.3-.4-.4-.1-.1-.3-.1-.6-.1h-1.3v5.7h-2.3v-14h4.1c.9 0 1.7.1 2.4.3.7.2 1.2.5 1.6.8.4.4.8.8.9 1.2.2.5.3 1 .3 1.6 0 .5-.1.9-.2 1.4s-.4.8-.6 1.1c-.3.4-.6.6-1 .9s-.9.4-1.4.6c.3.2.5.4.7.7l4.1 5.4zm-6.6-7.3c.5 0 1-.1 1.4-.2.4-.1.7-.3 1-.5s.4-.5.6-.8c.1-.3.2-.7.2-1.1 0-.8-.2-1.4-.8-1.8s-1.3-.6-2.3-.6h-1.9v5h1.8zM2700.9 20.8h-1.8c-.2 0-.4-.1-.5-.1-.1-.1-.2-.2-.3-.4l-1.2-3.1h-6.1l-1.2 3.1c-.1.1-.1.2-.3.4-.1.1-.3.2-.5.2h-1.8l5.6-14.1h2.3l5.8 14zm-4.3-5.2-1.9-5.1c-.1-.4-.3-.9-.5-1.5-.1.3-.1.6-.2.9-.1.3-.2.5-.2.7l-1.9 5.1 4.7-.1zM2729.7 13.8c0 1-.2 2-.5 2.9-.3.9-.8 1.6-1.4 2.2-.6.6-1.4 1.1-2.2 1.4-.9.3-1.8.5-2.9.5h-5.3v-14h5.3c1.1 0 2 .2 2.9.5s1.6.8 2.2 1.4c.6.6 1.1 1.4 1.4 2.2.3.9.5 1.9.5 2.9zm-2.4 0c0-.8-.1-1.5-.3-2.2s-.5-1.2-.9-1.6-.9-.8-1.5-1-1.2-.4-1.9-.4h-3V19h3c.7 0 1.4-.1 1.9-.4.6-.2 1.1-.6 1.5-1s.7-1 .9-1.6.3-1.4.3-2.2zM2739.7 20.8h-2.3v-14h2.3v14zM2759.9 13.9v5.6c-1.4 1-3 1.5-4.9 1.5-1.1 0-2.2-.2-3.1-.5s-1.7-.9-2.4-1.5c-.6-.6-1.2-1.4-1.5-2.3s-.5-1.9-.5-2.9c0-1.1.2-2 .5-2.9s.8-1.6 1.5-2.3c.6-.6 1.4-1.1 2.3-1.5.9-.4 1.9-.5 3-.5.6 0 1.1 0 1.6.1s.9.2 1.4.4c.4.2.8.4 1.1.6.4.2.7.5 1 .7l-.6 1c-.1.2-.2.3-.4.3s-.3 0-.5-.1-.4-.2-.6-.4c-.2-.1-.4-.2-.7-.4l-.9-.3c-.4-.1-.8-.1-1.3-.1-.7 0-1.4.1-2 .4s-1.1.6-1.5 1.1c-.4.4-.8 1-1 1.6s-.3 1.4-.3 2.2.1 1.6.4 2.2c.2.7.6 1.2 1 1.7s1 .8 1.6 1.1c.6.2 1.3.4 2.1.4.6 0 1.1-.1 1.6-.2s.9-.3 1.3-.5v-2.8h-2c-.1 0-.3 0-.4-.1-.1-.1-.1-.2-.1-.3v-1.3h4.3zM2770.1 20.8h-2.3v-14h2.3v14zM2788.4 8.7h-4.4v12.2h-2.3V8.7h-4.4V6.8h11.1v1.9zM2806 20.8h-1.8c-.2 0-.4-.1-.5-.1-.1-.1-.2-.2-.3-.4l-1.2-3.1h-6.1l-1.2 3.1c-.1.1-.1.2-.3.4-.1.1-.3.2-.5.2h-1.8l5.6-14.1h2.3l5.8 14zm-4.3-5.2-1.9-5.1c-.1-.4-.3-.9-.5-1.5-.1.3-.1.6-.2.9-.1.3-.2.5-.2.7l-1.9 5.1 4.7-.1zM2821.1 18.9v1.9h-8.1v-14h2.3V19h5.8v-.1z"/><g><path d="m2511 233.6 41-53.3h18.9v93.2h-24.4v-53.8h-1l-29.4 40.7h-11.5l-29.4-40.7h-1v53.8h-24.4v-93.2h18.9l41 53.3h1.3zM2595.3 223v-42.6h25.9v39.2c0 17.4 8 32.3 27.2 32.3 19.4 0 27.4-14.9 27.4-32.3v-39.2h25.9V223c0 29.8-19.2 51.6-53.3 51.6-37.2.1-53.1-21.9-53.1-51.6zM2786.1 273.5H2761v-72.2h-34.9v-21h95.1v21h-35.1v72.2z"/></g><path class="st0" d="M2686.9 41.7v14.9H2672V41.7h-9.8v14.9h-14.9V41.7h-34.5v14.9h-14.9V41.7h-34.5v14.9h-14.9V41.7h-59.2v14.9h-14.9V41.7H2450v74.2h14.6v14.9H2450v24.7h148v-14.9h14.9v14.9h34.5v-14.9h14.9v14.9h9.8v-14.9h14.9v14.9h134.3V41.7h-134.4zm-173 89.1H2499v-14.9h14.9v14.9zm0-24.8H2499V91.1h14.9V106zm24.7 0h-14.9V91.1h14.9V106zm24.7 0h-14.9V91.1h14.9V106zm0-24.7h-14.9V66.4h14.9v14.9zm24.7 49.5h-14.9v-14.9h14.9v14.9zm0-24.8h-14.9V91.1h14.9V106zm0-24.7h-14.9V66.4h14.9v14.9zm24.7 49.5h-14.9v-14.9h14.9v14.9zm0-49.5h-14.9V66.4h14.9v14.9zm24.8 49.5h-14.9v-14.9h14.9v14.9zm0-24.8h-14.9V91.1h14.9V106zm0-24.7h-14.9V66.4h14.9v14.9zm9.7-14.9h14.9v14.9h-14.9V66.4zm0 24.7h14.9V106h-14.9V91.1zm15 39.7h-14.9v-14.9h14.9v14.9zm9.8-64.4h14.9v14.9H2672V66.4zm0 24.7h14.9V106H2672V91.1zm14.9 39.7H2672v-14.9h14.9v14.9z"/><path style="fill:#f4ede5" d="M948-171.2h878.7v623.6H948z"/><g><path d="M1213.7 8.7h-4.4v12.2h-2.3V8.7h-4.4V6.8h11.1v1.9zM1231.7 20.8h-2.1c-.4 0-.7-.2-.9-.5l-3.3-4.7c-.1-.2-.2-.3-.4-.4-.1-.1-.3-.1-.6-.1h-1.3v5.7h-2.3v-14h4.1c.9 0 1.7.1 2.4.3.7.2 1.2.5 1.7.8.4.4.8.8.9 1.2.2.5.3 1 .3 1.6 0 .5-.1.9-.2 1.4s-.3.8-.6 1.1c-.3.4-.6.6-1 .9s-.9.4-1.4.6c.3.2.5.4.7.7l4 5.4zm-6.7-7.3c.5 0 1-.1 1.4-.2s.7-.3 1-.5.4-.5.6-.8.2-.7.2-1.1c0-.8-.2-1.4-.8-1.8s-1.3-.6-2.3-.6h-1.8v5h1.7zM1250.4 20.8h-1.8c-.2 0-.4-.1-.5-.1-.1-.1-.2-.2-.3-.4l-1.2-3.1h-6.1l-1.2 3.1c-.1.1-.1.2-.3.4s-.3.2-.5.2h-1.8l5.6-14.1h2.3l5.8 14zm-4.3-5.2-1.9-5.1c-.2-.4-.3-.9-.5-1.5-.1.3-.2.6-.2.9-.1.3-.2.5-.2.7l-1.9 5.1 4.7-.1zM1269 6.8v14.1h-1.2c-.2 0-.3 0-.4-.1l-.3-.3-7.7-9.9V21h-2V6.8h1.4c.1 0 .1 0 .2.1.1 0 .1.1.2.1l.2.2 7.7 9.9V6.8h1.9zM1284.9 9.2c-.1.1-.2.2-.2.3-.1.1-.2.1-.3.1-.1 0-.3-.1-.4-.2-.2-.1-.3-.2-.6-.4-.2-.1-.5-.2-.8-.4-.3-.1-.7-.2-1.1-.2s-.7.1-1 .1c-.3.1-.6.2-.8.4-.2.2-.3.4-.5.6-.1.2-.2.5-.2.8 0 .4.1.7.3.9.2.2.4.4.8.6s.7.3 1.1.4c.4.1.8.3 1.2.4.4.1.8.3 1.2.5.4.2.8.4 1.1.7.3.3.6.6.8 1 .2.4.3.9.3 1.5s-.1 1.2-.3 1.8c-.2.6-.5 1-.9 1.4s-.9.7-1.5 1c-.6.2-1.3.4-2 .4-.4 0-.9 0-1.3-.1s-.8-.2-1.2-.4c-.4-.2-.8-.4-1.1-.6s-.6-.5-.9-.8l.7-1.1c.1-.1.1-.2.2-.2.1-.1.2-.1.3-.1.2 0 .3.1.5.2s.4.3.7.5c.3.2.6.3.9.5.4.1.8.2 1.3.2.8 0 1.5-.2 1.9-.6s.7-1 .7-1.7c0-.4-.1-.7-.3-1-.2-.2-.4-.5-.8-.6s-.7-.3-1.1-.4-.8-.2-1.2-.4c-.4-.1-.8-.3-1.2-.5-.4-.2-.8-.4-1.1-.7s-.6-.6-.8-1.1c-.2-.4-.3-1-.3-1.6 0-.5.1-1 .3-1.5.2-.5.5-.9.9-1.3s.8-.7 1.4-.9 1.2-.3 1.9-.3c.8 0 1.6.1 2.2.4.7.3 1.2.6 1.8 1.1l-.6 1.3zM1297.9 6.8c.9 0 1.7.1 2.4.3.7.2 1.2.5 1.7.9.4.4.8.9 1 1.4.2.6.3 1.1.3 1.8s-.1 1.3-.3 1.8-.6 1-1 1.4-1 .7-1.7.9-1.4.3-2.3.3h-2.1v5.1h-2.3V6.8h4.3zm0 7.1c.5 0 .9-.1 1.3-.2s.7-.3 1-.6.4-.5.6-.9.2-.7.2-1.1c0-.4-.1-.8-.2-1.1s-.3-.6-.6-.8-.6-.4-1-.5-.8-.2-1.4-.2h-2.1v5.4h2.2zM1323.9 13.8c0 1-.2 2-.5 2.9-.3.9-.8 1.6-1.4 2.3-.6.6-1.3 1.1-2.2 1.5-.9.4-1.8.5-2.9.5s-2-.2-2.9-.5c-.9-.4-1.6-.9-2.2-1.5s-1.1-1.4-1.4-2.3-.5-1.8-.5-2.9c0-1 .2-2 .5-2.9s.8-1.6 1.4-2.3 1.4-1.1 2.2-1.5c.9-.4 1.8-.5 2.9-.5s2 .2 2.9.5 1.6.9 2.2 1.5 1.1 1.4 1.4 2.3c.4.9.5 1.9.5 2.9zm-2.3 0c0-.8-.1-1.5-.3-2.2s-.5-1.2-.9-1.6c-.4-.4-.9-.8-1.5-1s-1.2-.4-1.9-.4-1.4.1-1.9.4-1.1.6-1.5 1-.7 1-.9 1.6c-.2.6-.3 1.4-.3 2.2s.1 1.5.3 2.2c.2.6.5 1.2.9 1.6s.9.8 1.5 1 1.2.4 1.9.4 1.4-.1 1.9-.4 1.1-.6 1.5-1 .7-1 .9-1.6.3-1.4.3-2.2zM1342.4 20.8h-2.1c-.4 0-.7-.2-.9-.5l-3.3-4.7c-.1-.2-.2-.3-.4-.4-.1-.1-.3-.1-.6-.1h-1.3v5.7h-2.3v-14h4.1c.9 0 1.7.1 2.4.3.7.2 1.2.5 1.7.8.4.4.8.8.9 1.2.2.5.3 1 .3 1.6 0 .5-.1.9-.2 1.4s-.3.8-.6 1.1c-.3.4-.6.6-1 .9s-.9.4-1.4.6c.3.2.5.4.7.7l4 5.4zm-6.6-7.3c.5 0 1-.1 1.4-.2s.7-.3 1-.5.4-.5.6-.8.2-.7.2-1.1c0-.8-.2-1.4-.8-1.8s-1.3-.6-2.3-.6h-1.8v5h1.7zM1358.7 8.7h-4.4v12.2h-2.3V8.7h-4.4V6.8h11.1v1.9zM1376.3 20.8h-1.8c-.2 0-.4-.1-.5-.1-.1-.1-.2-.2-.3-.4l-1.2-3.1h-6.1l-1.2 3.1c-.1.1-.2.2-.3.4s-.3.2-.5.2h-1.8l5.6-14.1h2.3l5.8 14zm-4.4-5.2-1.9-5.1c-.2-.4-.3-.9-.5-1.5-.1.3-.2.6-.2.9-.1.3-.2.5-.2.7l-1.9 5.1 4.7-.1zM1395.5 13.8c0 1-.2 2-.5 2.9-.3.9-.8 1.6-1.4 2.2s-1.3 1.1-2.2 1.4c-.9.3-1.8.5-2.9.5h-5.3v-14h5.3c1.1 0 2 .2 2.9.5s1.6.8 2.2 1.4 1.1 1.4 1.4 2.2c.4.9.5 1.9.5 2.9zm-2.3 0c0-.8-.1-1.5-.3-2.2s-.5-1.2-.9-1.6c-.4-.4-.9-.8-1.5-1s-1.2-.4-1.9-.4h-3V19h3c.7 0 1.4-.1 1.9-.4.6-.2 1.1-.6 1.5-1s.7-1 .9-1.6.3-1.4.3-2.2zM1416.5 13.8c0 1-.2 2-.5 2.9-.3.9-.8 1.6-1.4 2.3-.6.6-1.3 1.1-2.2 1.5-.9.4-1.8.5-2.9.5s-2-.2-2.9-.5c-.9-.4-1.6-.9-2.2-1.5s-1.1-1.4-1.4-2.3-.5-1.8-.5-2.9c0-1 .2-2 .5-2.9s.8-1.6 1.4-2.3 1.4-1.1 2.2-1.5c.9-.4 1.8-.5 2.9-.5s2 .2 2.9.5 1.6.9 2.2 1.5 1.1 1.4 1.4 2.3c.4.9.5 1.9.5 2.9zm-2.3 0c0-.8-.1-1.5-.3-2.2s-.5-1.2-.9-1.6c-.4-.4-.9-.8-1.5-1s-1.2-.4-1.9-.4-1.4.1-1.9.4-1.1.6-1.5 1-.7 1-.9 1.6c-.2.6-.3 1.4-.3 2.2s.1 1.5.3 2.2c.2.6.5 1.2.9 1.6s.9.8 1.5 1 1.2.4 1.9.4 1.4-.1 1.9-.4 1.1-.6 1.5-1 .7-1 .9-1.6.3-1.4.3-2.2zM1435 20.8h-2.1c-.4 0-.7-.2-.9-.5l-3.3-4.7c-.1-.2-.2-.3-.4-.4-.1-.1-.3-.1-.6-.1h-1.3v5.7h-2.3v-14h4.1c.9 0 1.7.1 2.4.3.7.2 1.2.5 1.7.8.4.4.8.8.9 1.2.2.5.3 1 .3 1.6 0 .5-.1.9-.2 1.4s-.3.8-.6 1.1c-.3.4-.6.6-1 .9s-.9.4-1.4.6c.3.2.5.4.7.7l4 5.4zm-6.6-7.3c.5 0 1-.1 1.4-.2s.7-.3 1-.5.4-.5.6-.8.2-.7.2-1.1c0-.8-.2-1.4-.8-1.8s-1.3-.6-2.3-.6h-1.9v5h1.8zM1453.8 20.8h-1.8c-.2 0-.4-.1-.5-.1-.1-.1-.2-.2-.3-.4l-1.2-3.1h-6.1l-1.2 3.1c-.1.1-.1.2-.3.4s-.3.2-.5.2h-1.8l5.6-14.1h2.3l5.8 14zm-4.4-5.2-1.9-5.1c-.2-.4-.3-.9-.5-1.5-.1.3-.2.6-.2.9-.1.3-.2.5-.2.7l-1.9 5.1 4.7-.1zM1482.5 13.8c0 1-.2 2-.5 2.9-.3.9-.8 1.6-1.4 2.2s-1.4 1.1-2.2 1.4c-.9.3-1.8.5-2.9.5h-5.3v-14h5.3c1.1 0 2 .2 2.9.5s1.6.8 2.2 1.4c.6.6 1.1 1.4 1.4 2.2.3.9.5 1.9.5 2.9zm-2.3 0c0-.8-.1-1.5-.3-2.2s-.5-1.2-.9-1.6c-.4-.4-.9-.8-1.5-1s-1.2-.4-1.9-.4h-3V19h3c.7 0 1.4-.1 1.9-.4.6-.2 1.1-.6 1.5-1s.7-1 .9-1.6c.1-.6.3-1.4.3-2.2zM1492.6 20.8h-2.3v-14h2.3v14zM1512.7 13.9v5.6c-1.4 1-3 1.5-4.9 1.5-1.1 0-2.2-.2-3.1-.5-.9-.4-1.7-.9-2.4-1.5s-1.2-1.4-1.5-2.3-.5-1.9-.5-2.9c0-1.1.2-2 .5-2.9s.8-1.6 1.5-2.3c.6-.6 1.4-1.1 2.3-1.5s1.9-.5 3-.5c.6 0 1.1 0 1.6.1s.9.2 1.3.4l1.2.6c.4.2.7.5 1 .7l-.7 1c-.1.2-.2.3-.4.3s-.3 0-.5-.1-.4-.2-.6-.4c-.2-.1-.4-.2-.7-.4l-.9-.3c-.4-.1-.8-.1-1.3-.1-.7 0-1.4.1-2 .4s-1.1.6-1.5 1.1c-.4.4-.8 1-1 1.6s-.3 1.4-.3 2.2.1 1.6.4 2.2c.2.7.6 1.2 1 1.7s1 .8 1.6 1.1 1.3.4 2.1.4c.6 0 1.1-.1 1.6-.2.4-.1.9-.3 1.3-.5v-2.8h-2c-.2 0-.3 0-.3-.1-.1-.1-.1-.2-.1-.3v-1.3h4.3zM1522.9 20.8h-2.3v-14h2.3v14zM1541.2 8.7h-4.4v12.2h-2.3V8.7h-4.4V6.8h11.1v1.9zM1558.9 20.8h-1.8c-.2 0-.4-.1-.5-.1-.1-.1-.2-.2-.3-.4l-1.2-3.1h-6.1l-1.2 3.1c-.1.1-.1.2-.3.4s-.3.2-.5.2h-1.8l5.6-14.1h2.3l5.8 14zm-4.4-5.2-1.9-5.1c-.2-.4-.3-.9-.5-1.5-.1.3-.2.6-.2.9-.1.3-.2.5-.2.7l-1.9 5.1 4.7-.1zM1573.9 18.9v1.9h-8.1v-14h2.3V19h5.8v-.1z"/></g><g><path d="m1263.8 233.6 41-53.3h18.9v93.2h-24.4v-53.8h-1l-29.3 40.7h-11.5l-29.3-40.7h-1v53.8h-24.4v-93.2h18.9l41 53.3h1.1zM1348.1 223v-42.6h25.9v39.2c0 17.4 8 32.3 27.2 32.3 19.3 0 27.4-14.9 27.4-32.3v-39.2h25.9V223c0 29.8-19.2 51.6-53.3 51.6-37.2.1-53.1-21.9-53.1-51.6zM1538.9 273.5h-25.1v-72.2h-34.9v-21h95.1v21h-35.1v72.2z"/></g><path class="st0" d="M1439.7 41.7v14.9h-14.9V41.7h-9.8v14.9h-14.9V41.7h-34.5v14.9h-14.9V41.7h-34.5v14.9h-14.9V41.7H1242v14.9h-15V41.7h-24.4v74.2h14.6v14.9h-14.6v24.7h148v-14.9h14.9v14.9h34.5v-14.9h14.9v14.9h9.8v-14.9h14.9v14.9h134.3V41.7h-134.2zm-173 89.1h-14.9v-14.9h14.9v14.9zm0-24.8h-14.9V91.1h14.9V106zm24.7 0h-14.9V91.1h14.9V106zm24.7 0h-14.9V91.1h14.9V106zm0-24.7h-14.9V66.4h14.9v14.9zm24.7 49.5h-14.9v-14.9h14.9v14.9zm0-24.8h-14.9V91.1h14.9V106zm0-24.7h-14.9V66.4h14.9v14.9zm24.8 49.5h-14.9v-14.9h14.9v14.9zm0-49.5h-14.9V66.4h14.9v14.9zm24.7 49.5h-14.9v-14.9h14.9v14.9zm0-24.8h-14.9V91.1h14.9V106zm0-24.7h-14.9V66.4h14.9v14.9zm9.8-14.9h14.9v14.9h-14.9V66.4zm0 24.7h14.9V106h-14.9V91.1zm14.9 39.7h-14.9v-14.9h14.9v14.9zm9.8-64.4h14.9v14.9h-14.9V66.4zm0 24.7h14.9V106h-14.9V91.1zm14.9 39.7h-14.9v-14.9h14.9v14.9z"/><g><path class="st3" d="M2460.9 792.4h-4.4v12.2h-2.3v-12.2h-4.4v-1.9h11.1v1.9zM2478.8 804.5h-2.1c-.4 0-.7-.2-.9-.5l-3.3-4.7c-.1-.2-.2-.3-.4-.3-.1-.1-.3-.1-.6-.1h-1.3v5.7h-2.3v-14.1h4.1c.9 0 1.7.1 2.4.3s1.2.5 1.6.8.8.8.9 1.2c.2.5.3 1 .3 1.6 0 .5-.1.9-.2 1.4s-.4.8-.6 1.2c-.3.3-.6.7-1 .9s-.9.5-1.4.6c.3.2.5.4.7.7l4.1 5.3zm-6.6-7.3c.5 0 1-.1 1.4-.2.4-.1.7-.3 1-.5s.4-.5.6-.8c.1-.3.2-.7.2-1 0-.8-.2-1.4-.8-1.8s-1.3-.6-2.3-.6h-1.9v5h1.8v-.1zM2497.6 804.5h-1.8c-.2 0-.4 0-.5-.2-.1-.1-.2-.2-.3-.4l-1.2-3.1h-6.1l-1.2 3.1c-.1.1-.1.2-.3.4-.1.1-.3.2-.5.2h-1.8l5.6-14.1h2.3l5.8 14.1zm-4.4-5.2-1.9-5.2c-.1-.4-.3-.9-.5-1.5-.1.3-.1.6-.2.8-.1.3-.2.5-.2.7l-1.9 5.1 4.7.1zM2516.1 790.5v14.1h-1.2c-.2 0-.3 0-.4-.1s-.2-.2-.4-.3l-7.7-9.9v10.4h-2v-14.1H2506c.1 0 .1.1.2.1s.1.1.2.2l7.7 9.9V790.5h2zM2532.1 792.9c-.1.1-.1.2-.2.3-.1 0-.2.1-.3.1s-.3 0-.4-.2c-.1-.1-.3-.2-.6-.3-.2-.1-.5-.2-.8-.3s-.7-.2-1.1-.2c-.4 0-.7 0-1 .2-.3.1-.6.2-.8.4s-.4.4-.5.6c-.1.2-.1.5-.1.8 0 .4.1.7.3.9s.4.4.8.6.7.3 1.1.4c.4.1.8.3 1.2.4.4.1.8.3 1.2.5s.8.4 1.1.7.6.6.8 1 .3.9.3 1.5-.1 1.2-.3 1.8c-.2.5-.5 1-.9 1.4s-.9.7-1.5 1c-.6.2-1.3.3-2 .3-.4 0-.9 0-1.3-.1s-.8-.2-1.2-.4-.8-.3-1.1-.6c-.3-.2-.6-.5-.9-.8l.7-1.1c.1-.1.1-.2.2-.2s.2-.1.3-.1.3.1.5.2.4.3.7.5.6.3.9.5c.4.1.8.2 1.3.2.8 0 1.5-.2 1.9-.6.4-.4.7-1 .7-1.7 0-.4-.1-.7-.3-1s-.4-.5-.8-.6-.7-.3-1.1-.4c-.4-.1-.8-.2-1.2-.4-.4-.1-.8-.3-1.2-.5s-.8-.4-1.1-.7-.6-.7-.8-1.1c-.2-.4-.3-1-.3-1.6 0-.5.1-1 .3-1.5s.5-.9.9-1.3.9-.7 1.4-.9c.6-.2 1.2-.3 1.9-.3.8 0 1.6.1 2.2.4.7.3 1.2.6 1.8 1.1l-.7 1.1zM2545.1 790.5c.9 0 1.7.1 2.4.3s1.2.5 1.7.9c.4.4.8.8 1 1.4.2.5.3 1.2.3 1.8 0 .7-.1 1.3-.3 1.8s-.6 1-1 1.4-1 .7-1.7.9-1.4.3-2.3.3h-2.1v5.1h-2.3v-14.1l4.3.2zm0 7.1c.5 0 .9-.1 1.3-.2s.7-.3 1-.5.4-.5.6-.9c.1-.3.2-.7.2-1.1 0-.4-.1-.8-.2-1.1-.1-.3-.3-.6-.6-.8-.2-.2-.6-.4-1-.5s-.8-.2-1.4-.2h-2.1v5.4l2.2-.1zM2571.1 797.5c0 1-.2 2-.5 2.9s-.8 1.6-1.4 2.3c-.6.6-1.4 1.1-2.2 1.5-.9.4-1.8.5-2.9.5s-2-.2-2.9-.5c-.9-.4-1.6-.9-2.2-1.5-.6-.6-1.1-1.4-1.4-2.3-.3-.9-.5-1.8-.5-2.9s.2-2 .5-2.9.8-1.6 1.4-2.3c.6-.6 1.4-1.1 2.2-1.5.9-.4 1.8-.5 2.9-.5s2 .2 2.9.5c.9.4 1.6.9 2.2 1.5.6.6 1.1 1.4 1.4 2.3s.5 1.9.5 2.9zm-2.3 0c0-.8-.1-1.5-.3-2.2s-.5-1.2-.9-1.6c-.4-.5-.9-.8-1.5-1s-1.2-.4-1.9-.4-1.4.1-1.9.4c-.6.2-1.1.6-1.5 1-.4.5-.7 1-.9 1.6-.2.7-.3 1.4-.3 2.2s.1 1.5.3 2.2.5 1.2.9 1.6c.4.4.9.8 1.5 1s1.2.4 1.9.4 1.4-.1 1.9-.4c.6-.2 1.1-.6 1.5-1s.7-1 .9-1.6.3-1.4.3-2.2zM2589.6 804.5h-2.1c-.4 0-.7-.2-.9-.5l-3.3-4.7c-.1-.2-.2-.3-.4-.3-.1-.1-.3-.1-.6-.1h-1.3v5.7h-2.3v-14.1h4.1c.9 0 1.7.1 2.4.3s1.2.5 1.6.8.8.8.9 1.2c.2.5.3 1 .3 1.6 0 .5-.1.9-.2 1.4s-.4.8-.6 1.2c-.3.3-.6.7-1 .9s-.9.5-1.4.6c.3.2.5.4.7.7l4.1 5.3zm-6.6-7.3c.5 0 1-.1 1.4-.2.4-.1.7-.3 1-.5s.4-.5.6-.8c.1-.3.2-.7.2-1 0-.8-.2-1.4-.8-1.8s-1.3-.6-2.3-.6h-1.9v5h1.8v-.1zM2605.8 792.4h-4.4v12.2h-2.3v-12.2h-4.4v-1.9h11.1v1.9zM2623.4 804.5h-1.8c-.2 0-.4 0-.5-.2-.1-.1-.2-.2-.3-.4l-1.2-3.1h-6.1l-1.2 3.1c-.1.1-.1.2-.3.4-.1.1-.3.2-.5.2h-1.8l5.6-14.1h2.3l5.8 14.1zm-4.3-5.2-1.9-5.2c-.2-.4-.3-.9-.5-1.5-.1.3-.1.6-.2.8-.1.3-.2.5-.2.7l-1.9 5.1 4.7.1zM2642.7 797.5c0 1-.2 2-.5 2.9s-.8 1.6-1.4 2.2c-.6.6-1.4 1.1-2.2 1.4-.9.3-1.8.5-2.9.5h-5.3v-14.1h5.3c1.1 0 2 .2 2.9.5s1.6.8 2.2 1.4c.6.6 1.1 1.4 1.4 2.2.3 1 .5 2 .5 3zm-2.3 0c0-.8-.1-1.5-.3-2.2s-.5-1.2-.9-1.6c-.4-.4-.9-.8-1.5-1s-1.2-.4-1.9-.4h-3v10.4h3c.7 0 1.4-.1 1.9-.3.6-.2 1.1-.6 1.5-1 .4-.5.7-1 .9-1.6.2-.8.3-1.5.3-2.3zM2663.7 797.5c0 1-.2 2-.5 2.9s-.8 1.6-1.4 2.3-1.4 1.1-2.2 1.5c-.9.4-1.8.5-2.9.5s-2-.2-2.9-.5c-.9-.4-1.6-.9-2.2-1.5-.6-.6-1.1-1.4-1.4-2.3-.3-.9-.5-1.8-.5-2.9s.2-2 .5-2.9.8-1.6 1.4-2.3c.6-.6 1.4-1.1 2.2-1.5.9-.4 1.8-.5 2.9-.5s2 .2 2.9.5c.9.4 1.6.9 2.2 1.5s1.1 1.4 1.4 2.3c.3.9.5 1.9.5 2.9zm-2.3 0c0-.8-.1-1.5-.3-2.2s-.5-1.2-.9-1.6c-.4-.5-.9-.8-1.5-1s-1.2-.4-1.9-.4-1.4.1-1.9.4c-.6.2-1.1.6-1.5 1-.4.5-.7 1-.9 1.6-.2.7-.3 1.4-.3 2.2s.1 1.5.3 2.2.5 1.2.9 1.6c.4.4.9.8 1.5 1s1.2.4 1.9.4 1.4-.1 1.9-.4c.6-.2 1.1-.6 1.5-1s.7-1 .9-1.6.3-1.4.3-2.2zM2682.2 804.5h-2.1c-.4 0-.7-.2-.9-.5l-3.3-4.7c-.1-.2-.2-.3-.4-.3-.1-.1-.3-.1-.6-.1h-1.3v5.7h-2.3v-14.1h4.1c.9 0 1.7.1 2.4.3s1.2.5 1.6.8.8.8.9 1.2c.2.5.3 1 .3 1.6 0 .5-.1.9-.2 1.4s-.4.8-.6 1.2c-.3.3-.6.7-1 .9s-.9.5-1.4.6c.3.2.5.4.7.7l4.1 5.3zm-6.6-7.3c.5 0 1-.1 1.4-.2.4-.1.7-.3 1-.5s.4-.5.6-.8c.1-.3.2-.7.2-1 0-.8-.2-1.4-.8-1.8s-1.3-.6-2.3-.6h-1.9v5h1.8v-.1zM2700.9 804.5h-1.8c-.2 0-.4 0-.5-.2-.1-.1-.2-.2-.3-.4l-1.2-3.1h-6.1l-1.2 3.1c-.1.1-.1.2-.3.4-.1.1-.3.2-.5.2h-1.8l5.6-14.1h2.3l5.8 14.1zm-4.3-5.2-1.9-5.2c-.1-.4-.3-.9-.5-1.5-.1.3-.1.6-.2.8-.1.3-.2.5-.2.7l-1.9 5.1 4.7.1zM2729.7 797.5c0 1-.2 2-.5 2.9s-.8 1.6-1.4 2.2c-.6.6-1.4 1.1-2.2 1.4-.9.3-1.8.5-2.9.5h-5.3v-14.1h5.3c1.1 0 2 .2 2.9.5s1.6.8 2.2 1.4c.6.6 1.1 1.4 1.4 2.2.3 1 .5 2 .5 3zm-2.4 0c0-.8-.1-1.5-.3-2.2s-.5-1.2-.9-1.6-.9-.8-1.5-1-1.2-.4-1.9-.4h-3v10.4h3c.7 0 1.4-.1 1.9-.3.6-.2 1.1-.6 1.5-1s.7-1 .9-1.6c.2-.8.3-1.5.3-2.3zM2739.7 804.5h-2.3v-14.1h2.3v14.1zM2759.9 797.6v5.6c-1.4 1-3 1.5-4.9 1.5-1.1 0-2.2-.2-3.1-.5-.9-.3-1.7-.8-2.4-1.5-.6-.6-1.2-1.4-1.5-2.3s-.5-1.8-.5-2.9c0-1.1.2-2 .5-2.9s.8-1.6 1.5-2.3c.6-.6 1.4-1.1 2.3-1.5.9-.3 1.9-.5 3-.5.6 0 1.1 0 1.6.1s.9.2 1.4.4c.4.2.8.3 1.1.6.4.2.7.5 1 .7l-.6 1c-.1.2-.2.3-.4.3s-.3 0-.5-.1l-.6-.3c-.2-.1-.4-.2-.7-.3l-.9-.3c-.3-.1-.8-.1-1.3-.1-.7 0-1.4.1-2 .4s-1.1.6-1.5 1c-.4.5-.8 1-1 1.6-.2.7-.3 1.4-.3 2.2s.1 1.6.4 2.2c.2.7.6 1.2 1 1.7s1 .8 1.6 1 1.3.4 2.1.4c.6 0 1.1-.1 1.6-.2s.9-.3 1.3-.5v-2.8h-2c-.1 0-.3 0-.4-.1-.1-.1-.1-.2-.1-.3v-1.3h4.3zM2770.1 804.5h-2.3v-14.1h2.3v14.1zM2788.4 792.4h-4.4v12.2h-2.3v-12.2h-4.4v-1.9h11.1v1.9zM2806 804.5h-1.8c-.2 0-.4 0-.5-.2-.1-.1-.2-.2-.3-.4l-1.2-3.1h-6.1l-1.2 3.1c-.1.1-.1.2-.3.4-.1.1-.3.2-.5.2h-1.8l5.6-14.1h2.3l5.8 14.1zm-4.3-5.2-1.9-5.2c-.1-.4-.3-.9-.5-1.5-.1.3-.1.6-.2.8-.1.3-.2.5-.2.7l-1.9 5.1 4.7.1zM2821.1 802.6v1.9h-8.1v-14.1h2.3v12.2h5.8z"/><g><path class="st3" d="m2511 1017.3 41-53.3h18.9v93.2h-24.4v-53.8h-1l-29.4 40.7h-11.5l-29.4-40.7h-1v53.8h-24.4V964h18.9l41 53.3h1.3zM2595.3 1006.7v-42.6h25.9v39.2c0 17.4 8 32.3 27.2 32.3 19.4 0 27.4-14.9 27.4-32.3v-39.2h25.9v42.6c0 29.8-19.2 51.6-53.3 51.6-37.2.1-53.1-21.9-53.1-51.6zM2786.1 1057.2H2761V985h-34.9v-21h95.1v21h-35.1v72.2z"/></g><path class="st3" d="M2686.9 825.4v14.9H2672v-14.9h-9.8v14.9h-14.9v-14.9h-34.5v14.9h-14.9v-14.9h-34.5v14.9h-14.9v-14.9h-59.2v14.9h-14.9v-14.9H2450v74.2h14.6v14.9H2450v24.7h148v-14.9h14.9v14.9h34.5v-14.9h14.9v14.9h9.8v-14.9h14.9v14.9h134.3V825.4h-134.4zm-173 89H2499v-14.9h14.9v14.9zm0-24.7H2499v-14.9h14.9v14.9zm24.7 0h-14.9v-14.9h14.9v14.9zm24.7 0h-14.9v-14.9h14.9v14.9zm0-24.7h-14.9v-14.9h14.9V865zm24.7 49.4h-14.9v-14.9h14.9v14.9zm0-24.7h-14.9v-14.9h14.9v14.9zm0-24.7h-14.9v-14.9h14.9V865zm24.7 49.4h-14.9v-14.9h14.9v14.9zm0-49.4h-14.9v-14.9h14.9V865zm24.8 49.4h-14.9v-14.9h14.9v14.9zm0-24.7h-14.9v-14.9h14.9v14.9zm0-24.7h-14.9v-14.9h14.9V865zm9.7-14.9h14.9V865h-14.9v-14.9zm0 24.7h14.9v14.9h-14.9v-14.9zm15 39.6h-14.9v-14.9h14.9v14.9zm9.8-64.3h14.9V865H2672v-14.9zm0 24.7h14.9v14.9H2672v-14.9zm14.9 39.6H2672v-14.9h14.9v14.9z"/></g><path d="M948 612.5h878.7v623.6H948z"/><g><path class="st3" d="M1213.7 792.4h-4.4v12.2h-2.3v-12.2h-4.4v-1.9h11.1v1.9zM1231.7 804.5h-2.1c-.4 0-.7-.2-.9-.5l-3.3-4.7c-.1-.2-.2-.3-.4-.3-.1-.1-.3-.1-.6-.1h-1.3v5.7h-2.3v-14.1h4.1c.9 0 1.7.1 2.4.3.7.2 1.2.5 1.7.8s.8.8.9 1.2c.2.5.3 1 .3 1.6 0 .5-.1.9-.2 1.4s-.3.8-.6 1.2c-.3.3-.6.7-1 .9s-.9.5-1.4.6c.3.2.5.4.7.7l4 5.3zm-6.7-7.3c.5 0 1-.1 1.4-.2s.7-.3 1-.5.4-.5.6-.8.2-.7.2-1c0-.8-.2-1.4-.8-1.8s-1.3-.6-2.3-.6h-1.8v5h1.7v-.1zM1250.4 804.5h-1.8c-.2 0-.4 0-.5-.2-.1-.1-.2-.2-.3-.4l-1.2-3.1h-6.1l-1.2 3.1c-.1.1-.1.2-.3.4s-.3.2-.5.2h-1.8l5.6-14.1h2.3l5.8 14.1zm-4.3-5.2-1.9-5.2c-.2-.4-.3-.9-.5-1.5-.1.3-.2.6-.2.8-.1.3-.2.5-.2.7l-1.9 5.1 4.7.1zM1269 790.5v14.1h-1.2c-.2 0-.3 0-.4-.1l-.3-.3-7.7-9.9v10.4h-2v-14.1H1259c.1 0 .1.1.2.1s.1.1.2.2l7.7 9.9V790.5h1.9zM1284.9 792.9c-.1.1-.2.2-.2.3-.1 0-.2.1-.3.1-.1 0-.3 0-.4-.2-.2-.1-.3-.2-.6-.3-.2-.1-.5-.2-.8-.3s-.7-.2-1.1-.2-.7 0-1 .2c-.3.1-.6.2-.8.4-.2.2-.3.4-.5.6-.1.2-.2.5-.2.8 0 .4.1.7.3.9.2.2.4.4.8.6s.7.3 1.1.4c.4.1.8.3 1.2.4.4.1.8.3 1.2.5s.8.4 1.1.7c.3.3.6.6.8 1 .2.4.3.9.3 1.5s-.1 1.2-.3 1.8c-.2.5-.5 1-.9 1.4s-.9.7-1.5 1c-.6.2-1.3.3-2 .3-.4 0-.9 0-1.3-.1s-.8-.2-1.2-.4-.8-.3-1.1-.6c-.3-.2-.6-.5-.9-.8l.7-1.1c.1-.1.1-.2.2-.2s.2-.1.3-.1c.2 0 .3.1.5.2s.4.3.7.5c.3.2.6.3.9.5.4.1.8.2 1.3.2.8 0 1.5-.2 1.9-.6.4-.4.7-1 .7-1.7 0-.4-.1-.7-.3-1-.2-.2-.4-.5-.8-.6s-.7-.3-1.1-.4-.8-.2-1.2-.4c-.4-.1-.8-.3-1.2-.5s-.8-.4-1.1-.7c-.3-.3-.6-.7-.8-1.1-.2-.4-.3-1-.3-1.6 0-.5.1-1 .3-1.5.2-.5.5-.9.9-1.3s.8-.7 1.4-.9 1.2-.3 1.9-.3c.8 0 1.6.1 2.2.4.7.3 1.2.6 1.8 1.1l-.6 1.1zM1297.9 790.5c.9 0 1.7.1 2.4.3.7.2 1.2.5 1.7.9.4.4.8.8 1 1.4.2.5.3 1.2.3 1.8 0 .7-.1 1.3-.3 1.8s-.6 1-1 1.4-1 .7-1.7.9-1.4.3-2.3.3h-2.1v5.1h-2.3v-14.1l4.3.2zm0 7.1c.5 0 .9-.1 1.3-.2s.7-.3 1-.5.4-.5.6-.9c.1-.3.2-.7.2-1.1 0-.4-.1-.8-.2-1.1s-.3-.6-.6-.8c-.2-.2-.6-.4-1-.5s-.8-.2-1.4-.2h-2.1v5.4l2.2-.1zM1323.9 797.5c0 1-.2 2-.5 2.9s-.8 1.6-1.4 2.3c-.6.6-1.3 1.1-2.2 1.5-.9.4-1.8.5-2.9.5s-2-.2-2.9-.5c-.9-.4-1.6-.9-2.2-1.5s-1.1-1.4-1.4-2.3-.5-1.8-.5-2.9.2-2 .5-2.9.8-1.6 1.4-2.3 1.4-1.1 2.2-1.5c.9-.4 1.8-.5 2.9-.5s2 .2 2.9.5 1.6.9 2.2 1.5 1.1 1.4 1.4 2.3c.4.9.5 1.9.5 2.9zm-2.3 0c0-.8-.1-1.5-.3-2.2s-.5-1.2-.9-1.6c-.4-.5-.9-.8-1.5-1s-1.2-.4-1.9-.4-1.4.1-1.9.4-1.1.6-1.5 1c-.4.5-.7 1-.9 1.6-.2.7-.3 1.4-.3 2.2s.1 1.5.3 2.2.5 1.2.9 1.6c.4.4.9.8 1.5 1s1.2.4 1.9.4 1.4-.1 1.9-.4 1.1-.6 1.5-1 .7-1 .9-1.6.3-1.4.3-2.2zM1342.4 804.5h-2.1c-.4 0-.7-.2-.9-.5l-3.3-4.7c-.1-.2-.2-.3-.4-.3-.1-.1-.3-.1-.6-.1h-1.3v5.7h-2.3v-14.1h4.1c.9 0 1.7.1 2.4.3.7.2 1.2.5 1.7.8s.8.8.9 1.2c.2.5.3 1 .3 1.6 0 .5-.1.9-.2 1.4s-.3.8-.6 1.2c-.3.3-.6.7-1 .9s-.9.5-1.4.6c.3.2.5.4.7.7l4 5.3zm-6.6-7.3c.5 0 1-.1 1.4-.2s.7-.3 1-.5.4-.5.6-.8.2-.7.2-1c0-.8-.2-1.4-.8-1.8s-1.3-.6-2.3-.6h-1.8v5h1.7v-.1zM1358.7 792.4h-4.4v12.2h-2.3v-12.2h-4.4v-1.9h11.1v1.9zM1376.3 804.5h-1.8c-.2 0-.4 0-.5-.2-.1-.1-.2-.2-.3-.4l-1.2-3.1h-6.1l-1.2 3.1c-.1.1-.2.2-.3.4s-.3.2-.5.2h-1.8l5.6-14.1h2.3l5.8 14.1zm-4.4-5.2-1.9-5.2c-.2-.4-.3-.9-.5-1.5-.1.3-.2.6-.2.8-.1.3-.2.5-.2.7l-1.9 5.1 4.7.1zM1395.5 797.5c0 1-.2 2-.5 2.9s-.8 1.6-1.4 2.2c-.6.6-1.3 1.1-2.2 1.4-.9.3-1.8.5-2.9.5h-5.3v-14.1h5.3c1.1 0 2 .2 2.9.5s1.6.8 2.2 1.4 1.1 1.4 1.4 2.2c.4 1 .5 2 .5 3zm-2.3 0c0-.8-.1-1.5-.3-2.2s-.5-1.2-.9-1.6c-.4-.4-.9-.8-1.5-1s-1.2-.4-1.9-.4h-3v10.4h3c.7 0 1.4-.1 1.9-.3s1.1-.6 1.5-1c.4-.5.7-1 .9-1.6.2-.8.3-1.5.3-2.3zM1416.5 797.5c0 1-.2 2-.5 2.9s-.8 1.6-1.4 2.3c-.6.6-1.3 1.1-2.2 1.5-.9.4-1.8.5-2.9.5s-2-.2-2.9-.5c-.9-.4-1.6-.9-2.2-1.5s-1.1-1.4-1.4-2.3-.5-1.8-.5-2.9.2-2 .5-2.9.8-1.6 1.4-2.3 1.4-1.1 2.2-1.5c.9-.4 1.8-.5 2.9-.5s2 .2 2.9.5 1.6.9 2.2 1.5 1.1 1.4 1.4 2.3c.4.9.5 1.9.5 2.9zm-2.3 0c0-.8-.1-1.5-.3-2.2s-.5-1.2-.9-1.6c-.4-.5-.9-.8-1.5-1s-1.2-.4-1.9-.4-1.4.1-1.9.4-1.1.6-1.5 1c-.4.5-.7 1-.9 1.6-.2.7-.3 1.4-.3 2.2s.1 1.5.3 2.2.5 1.2.9 1.6c.4.4.9.8 1.5 1s1.2.4 1.9.4 1.4-.1 1.9-.4 1.1-.6 1.5-1 .7-1 .9-1.6.3-1.4.3-2.2zM1435 804.5h-2.1c-.4 0-.7-.2-.9-.5l-3.3-4.7c-.1-.2-.2-.3-.4-.3-.1-.1-.3-.1-.6-.1h-1.3v5.7h-2.3v-14.1h4.1c.9 0 1.7.1 2.4.3.7.2 1.2.5 1.7.8s.8.8.9 1.2c.2.5.3 1 .3 1.6 0 .5-.1.9-.2 1.4s-.3.8-.6 1.2c-.3.3-.6.7-1 .9s-.9.5-1.4.6c.3.2.5.4.7.7l4 5.3zm-6.6-7.3c.5 0 1-.1 1.4-.2s.7-.3 1-.5.4-.5.6-.8.2-.7.2-1c0-.8-.2-1.4-.8-1.8s-1.3-.6-2.3-.6h-1.9v5h1.8v-.1zM1453.8 804.5h-1.8c-.2 0-.4 0-.5-.2-.1-.1-.2-.2-.3-.4l-1.2-3.1h-6.1l-1.2 3.1c-.1.1-.1.2-.3.4s-.3.2-.5.2h-1.8l5.6-14.1h2.3l5.8 14.1zm-4.4-5.2-1.9-5.2c-.2-.4-.3-.9-.5-1.5-.1.3-.2.6-.2.8-.1.3-.2.5-.2.7l-1.9 5.1 4.7.1zM1482.5 797.5c0 1-.2 2-.5 2.9s-.8 1.6-1.4 2.2c-.6.6-1.4 1.1-2.2 1.4-.9.3-1.8.5-2.9.5h-5.3v-14.1h5.3c1.1 0 2 .2 2.9.5s1.6.8 2.2 1.4c.6.6 1.1 1.4 1.4 2.2.3 1 .5 2 .5 3zm-2.3 0c0-.8-.1-1.5-.3-2.2s-.5-1.2-.9-1.6c-.4-.4-.9-.8-1.5-1s-1.2-.4-1.9-.4h-3v10.4h3c.7 0 1.4-.1 1.9-.3s1.1-.6 1.5-1 .7-1 .9-1.6c.1-.8.3-1.5.3-2.3zM1492.6 804.5h-2.3v-14.1h2.3v14.1zM1512.7 797.6v5.6c-1.4 1-3 1.5-4.9 1.5-1.1 0-2.2-.2-3.1-.5s-1.7-.8-2.4-1.5-1.2-1.4-1.5-2.3-.5-1.8-.5-2.9c0-1.1.2-2 .5-2.9s.8-1.6 1.5-2.3c.6-.6 1.4-1.1 2.3-1.5s1.9-.5 3-.5c.6 0 1.1 0 1.6.1s.9.2 1.3.4.8.3 1.2.6c.3.2.7.5 1 .7l-.7 1c-.1.2-.2.3-.4.3s-.3 0-.5-.1l-.6-.3c-.2-.1-.4-.2-.7-.3l-.9-.3c-.3-.1-.8-.1-1.3-.1-.7 0-1.4.1-2 .4s-1.1.6-1.5 1c-.4.5-.8 1-1 1.6-.2.7-.3 1.4-.3 2.2s.1 1.6.4 2.2c.2.7.6 1.2 1 1.7s1 .8 1.6 1 1.3.4 2.1.4c.6 0 1.1-.1 1.6-.2.4-.1.9-.3 1.3-.5v-2.8h-2c-.2 0-.3 0-.3-.1-.1-.1-.1-.2-.1-.3v-1.3h4.3zM1522.9 804.5h-2.3v-14.1h2.3v14.1zM1541.2 792.4h-4.4v12.2h-2.3v-12.2h-4.4v-1.9h11.1v1.9zM1558.9 804.5h-1.8c-.2 0-.4 0-.5-.2-.1-.1-.2-.2-.3-.4l-1.2-3.1h-6.1l-1.2 3.1c-.1.1-.1.2-.3.4s-.3.2-.5.2h-1.8l5.6-14.1h2.3l5.8 14.1zm-4.4-5.2-1.9-5.2c-.2-.4-.3-.9-.5-1.5-.1.3-.2.6-.2.8-.1.3-.2.5-.2.7l-1.9 5.1 4.7.1zM1573.9 802.6v1.9h-8.1v-14.1h2.3v12.2h5.8z"/><g><path class="st3" d="m1263.8 1017.3 41-53.3h18.9v93.2h-24.4v-53.8h-1l-29.3 40.7h-11.5l-29.3-40.7h-1v53.8h-24.4V964h18.9l41 53.3h1.1zM1348.1 1006.7v-42.6h25.9v39.2c0 17.4 8 32.3 27.2 32.3 19.3 0 27.4-14.9 27.4-32.3v-39.2h25.9v42.6c0 29.8-19.2 51.6-53.3 51.6-37.2.1-53.1-21.9-53.1-51.6zM1538.9 1057.2h-25.1V985h-34.9v-21h95.1v21h-35.1v72.2z"/></g><path class="st3" d="M1439.7 825.4v14.9h-14.9v-14.9h-9.8v14.9h-14.9v-14.9h-34.5v14.9h-14.9v-14.9h-34.5v14.9h-14.9v-14.9H1242v14.9h-15v-14.9h-24.4v74.2h14.6v14.9h-14.6v24.7h148v-14.9h14.9v14.9h34.5v-14.9h14.9v14.9h9.8v-14.9h14.9v14.9h134.3V825.4h-134.2zm-173 89h-14.9v-14.9h14.9v14.9zm0-24.7h-14.9v-14.9h14.9v14.9zm24.7 0h-14.9v-14.9h14.9v14.9zm24.7 0h-14.9v-14.9h14.9v14.9zm0-24.7h-14.9v-14.9h14.9V865zm24.7 49.4h-14.9v-14.9h14.9v14.9zm0-24.7h-14.9v-14.9h14.9v14.9zm0-24.7h-14.9v-14.9h14.9V865zm24.8 49.4h-14.9v-14.9h14.9v14.9zm0-49.4h-14.9v-14.9h14.9V865zm24.7 49.4h-14.9v-14.9h14.9v14.9zm0-24.7h-14.9v-14.9h14.9v14.9zm0-24.7h-14.9v-14.9h14.9V865zm9.8-14.9h14.9V865h-14.9v-14.9zm0 24.7h14.9v14.9h-14.9v-14.9zm14.9 39.6h-14.9v-14.9h14.9v14.9zm9.8-64.3h14.9V865h-14.9v-14.9zm0 24.7h14.9v14.9h-14.9v-14.9zm14.9 39.6h-14.9v-14.9h14.9v14.9z"/></g><g><path d="M20.3 792.4h-4.4v12.2h-2.3v-12.2H9.3v-1.9h11.1l-.1 1.9zM38.3 804.5h-2c-.4 0-.7-.2-.9-.5l-3.3-4.7c-.1-.2-.2-.3-.4-.3-.1-.1-.3-.1-.6-.1h-1.3v5.7h-2.3v-14.1h4.1c.9 0 1.7.1 2.4.3s1.2.5 1.6.8.8.8 1 1.2c.2.5.3 1 .3 1.6 0 .5-.1.9-.2 1.4s-.4.8-.6 1.2c-.3.3-.6.7-1 .9s-.9.5-1.4.6c.3.2.5.4.7.7l3.9 5.3zm-6.7-7.3c.5 0 1-.1 1.4-.2.4-.1.7-.3 1-.5s.5-.5.6-.8.2-.7.2-1c0-.8-.2-1.4-.8-1.8s-1.3-.6-2.3-.6h-1.9v5h1.8v-.1zM57 804.5h-1.8c-.2 0-.4 0-.5-.2-.1-.1-.2-.2-.3-.4l-1.2-3.1h-6.1l-1.2 3.1c0 .1-.1.2-.3.4-.1.1-.3.2-.5.2h-1.8l5.6-14.1h2.3l5.8 14.1zm-4.3-5.2-1.9-5.2c-.1-.4-.3-.9-.5-1.5-.1.3-.1.6-.2.8-.1.3-.2.5-.2.7l-1.9 5.1 4.7.1zM75.6 790.5v14.1h-1.2c-.2 0-.3 0-.5-.1s-.2-.2-.4-.3l-7.7-9.9v10.4h-2v-14.1H65.4c.1 0 .1.1.2.1l.2.2 7.7 9.9V790.5h2.1zM91.5 792.9c-.1.1-.1.2-.2.3-.1 0-.2.1-.3.1-.1 0-.3 0-.4-.2-.1-.1-.3-.2-.6-.3-.2-.1-.5-.2-.8-.3s-.7-.2-1.1-.2-.7 0-1 .2c-.3.1-.5.2-.8.4-.2.2-.4.4-.5.6-.1.2-.1.5-.1.8 0 .4.1.7.3.9.2.2.4.4.8.6s.7.3 1.1.4c.4.1.8.3 1.2.4s.8.3 1.2.5.8.4 1.1.7c.3.3.6.6.8 1 .2.4.3.9.3 1.5s-.1 1.2-.3 1.8c-.2.5-.5 1-.9 1.4s-.9.7-1.5 1c-.6.2-1.3.3-2 .3-.5 0-.9 0-1.3-.1s-.8-.2-1.2-.4-.8-.3-1.1-.6c-.3-.2-.6-.5-.9-.8l.7-1.1c.1-.1.1-.2.2-.2s.2-.1.3-.1c.1 0 .3.1.5.2s.4.3.7.5c.3.2.6.3.9.5.4.1.8.2 1.3.2.8 0 1.5-.2 1.9-.6.5-.4.7-1 .7-1.7 0-.4-.1-.7-.3-1s-.4-.5-.8-.6-.7-.3-1.1-.4-.8-.2-1.2-.4c-.4-.1-.8-.3-1.2-.5s-.8-.4-1.1-.7c-.3-.3-.6-.7-.8-1.1-.2-.4-.3-1-.3-1.6 0-.5.1-1 .3-1.5.2-.5.5-.9.9-1.3s.9-.7 1.4-.9c.6-.2 1.2-.3 1.9-.3.8 0 1.5.1 2.2.4.7.3 1.2.6 1.8 1.1l-.7 1.1zM104.5 790.5c.9 0 1.7.1 2.4.3s1.2.5 1.7.9c.4.4.8.8 1 1.4.2.5.3 1.2.3 1.8 0 .7-.1 1.3-.3 1.8s-.6 1-1 1.4c-.5.4-1 .7-1.7.9s-1.5.3-2.3.3h-2.1v5.1h-2.3v-14.1l4.3.2zm0 7.1c.5 0 1-.1 1.3-.2.4-.1.7-.3 1-.5s.5-.5.6-.9c.1-.3.2-.7.2-1.1 0-.4-.1-.8-.2-1.1s-.3-.6-.6-.8c-.2-.2-.6-.4-1-.5s-.8-.2-1.4-.2h-2.1v5.4l2.2-.1zM130.5 797.5c0 1-.2 2-.5 2.9s-.8 1.6-1.4 2.3-1.4 1.1-2.2 1.5c-.9.4-1.8.5-2.9.5s-2-.2-2.9-.5c-.9-.4-1.6-.9-2.2-1.5s-1.1-1.4-1.4-2.3-.5-1.8-.5-2.9.2-2 .5-2.9.8-1.6 1.4-2.3 1.4-1.1 2.2-1.5c.9-.4 1.8-.5 2.9-.5s2 .2 2.9.5 1.6.9 2.2 1.5 1.1 1.4 1.4 2.3c.4.9.5 1.9.5 2.9zm-2.3 0c0-.8-.1-1.5-.3-2.2s-.5-1.2-.9-1.6c-.4-.5-.9-.8-1.5-1s-1.2-.4-2-.4-1.4.1-2 .4c-.6.2-1.1.6-1.5 1-.4.5-.7 1-1 1.6-.2.7-.3 1.4-.3 2.2s.1 1.5.3 2.2.5 1.2 1 1.6c.4.4.9.8 1.5 1s1.2.4 2 .4 1.4-.1 2-.4c.6-.2 1.1-.6 1.5-1s.7-1 .9-1.6c.2-.6.3-1.4.3-2.2zM149 804.5h-2c-.4 0-.7-.2-.9-.5l-3.3-4.7c-.1-.2-.2-.3-.4-.3-.1-.1-.3-.1-.6-.1h-1.3v5.7h-2.3v-14.1h4.1c.9 0 1.7.1 2.4.3s1.2.5 1.6.8.8.8 1 1.2c.2.5.3 1 .3 1.6 0 .5-.1.9-.2 1.4s-.4.8-.6 1.2c-.3.3-.6.7-1 .9s-.9.5-1.4.6c.3.2.5.4.7.7l3.9 5.3zm-6.6-7.3c.5 0 1-.1 1.4-.2.4-.1.7-.3 1-.5s.5-.5.6-.8.2-.7.2-1c0-.8-.2-1.4-.8-1.8s-1.3-.6-2.3-.6h-1.9v5h1.8v-.1zM165.2 792.4h-4.4v12.2h-2.3v-12.2h-4.4v-1.9h11.1v1.9zM182.9 804.5h-1.8c-.2 0-.4 0-.5-.2-.1-.1-.2-.2-.3-.4l-1.2-3.1H173l-1.2 3.1c0 .1-.1.2-.3.4s-.3.2-.5.2h-1.8l5.6-14.1h2.3l5.8 14.1zm-4.4-5.2-1.9-5.2c-.2-.4-.3-.9-.5-1.5-.1.3-.1.6-.2.8-.1.3-.2.5-.2.7l-1.9 5.1 4.7.1zM202.1 797.5c0 1-.2 2-.5 2.9s-.8 1.6-1.4 2.2-1.4 1.1-2.2 1.4c-.9.3-1.8.5-2.9.5h-5.3v-14.1h5.3c1 0 2 .2 2.9.5s1.6.8 2.2 1.4 1.1 1.4 1.4 2.2c.4 1 .5 2 .5 3zm-2.3 0c0-.8-.1-1.5-.3-2.2s-.5-1.2-.9-1.6c-.4-.4-.9-.8-1.5-1s-1.2-.4-2-.4h-3v10.4h3c.7 0 1.4-.1 2-.3s1.1-.6 1.5-1c.4-.5.7-1 .9-1.6.2-.8.3-1.5.3-2.3zM223.1 797.5c0 1-.2 2-.5 2.9s-.8 1.6-1.4 2.3c-.6.6-1.4 1.1-2.2 1.5-.9.4-1.8.5-2.9.5-1 0-2-.2-2.9-.5-.9-.4-1.6-.9-2.2-1.5-.6-.6-1.1-1.4-1.4-2.3s-.5-1.8-.5-2.9.2-2 .5-2.9.8-1.6 1.4-2.3 1.4-1.1 2.2-1.5c.9-.4 1.8-.5 2.9-.5s2 .2 2.9.5 1.6.9 2.2 1.5c.6.6 1.1 1.4 1.4 2.3.4.9.5 1.9.5 2.9zm-2.3 0c0-.8-.1-1.5-.3-2.2s-.5-1.2-.9-1.6c-.4-.5-.9-.8-1.5-1s-1.2-.4-2-.4-1.4.1-2 .4c-.6.2-1.1.6-1.5 1-.4.5-.7 1-1 1.6-.2.7-.3 1.4-.3 2.2s.1 1.5.3 2.2.5 1.2 1 1.6c.4.4.9.8 1.5 1s1.2.4 2 .4 1.4-.1 2-.4c.6-.2 1.1-.6 1.5-1s.7-1 .9-1.6.3-1.4.3-2.2zM241.6 804.5h-2c-.4 0-.7-.2-.9-.5l-3.3-4.7c-.1-.2-.2-.3-.4-.3-.1-.1-.3-.1-.6-.1h-1.3v5.7h-2.3v-14.1h4.1c.9 0 1.7.1 2.4.3s1.2.5 1.6.8.8.8 1 1.2c.2.5.3 1 .3 1.6 0 .5-.1.9-.2 1.4s-.4.8-.6 1.2c-.3.3-.6.7-1 .9s-.9.5-1.4.6c.3.2.5.4.7.7l3.9 5.3zm-6.6-7.3c.5 0 1-.1 1.4-.2.4-.1.7-.3 1-.5s.5-.5.6-.8.2-.7.2-1c0-.8-.2-1.4-.8-1.8s-1.3-.6-2.3-.6h-1.9v5h1.8v-.1zM260.3 804.5h-1.8c-.2 0-.4 0-.5-.2-.1-.1-.2-.2-.3-.4l-1.2-3.1h-6.1l-1.2 3.1c0 .1-.1.2-.3.4-.1.1-.3.2-.5.2h-1.8l5.6-14.1h2.3l5.8 14.1zm-4.3-5.2-1.9-5.2c-.1-.4-.3-.9-.5-1.5-.1.3-.1.6-.2.8-.1.3-.2.5-.2.7l-1.9 5.1 4.7.1zM289.1 797.5c0 1-.2 2-.5 2.9s-.8 1.6-1.4 2.2c-.6.6-1.4 1.1-2.2 1.4-.9.3-1.8.5-2.9.5h-5.3v-14.1h5.3c1.1 0 2 .2 2.9.5s1.6.8 2.2 1.4c.6.6 1.1 1.4 1.4 2.2.3 1 .5 2 .5 3zm-2.4 0c0-.8-.1-1.5-.3-2.2-.2-.6-.5-1.2-.9-1.6s-.9-.8-1.5-1-1.2-.4-2-.4h-3v10.4h3c.7 0 1.4-.1 2-.3s1.1-.6 1.5-1c.4-.5.7-1 .9-1.6.2-.8.3-1.5.3-2.3zM299.2 804.5h-2.3v-14.1h2.3v14.1zM319.3 797.6v5.6c-1.4 1-3 1.5-4.9 1.5-1.1 0-2.2-.2-3.1-.5s-1.7-.8-2.4-1.5c-.7-.6-1.2-1.4-1.5-2.3-.3-.9-.5-1.8-.5-2.9 0-1.1.2-2 .5-2.9s.8-1.6 1.5-2.3 1.4-1.1 2.3-1.5c.9-.3 1.9-.5 3-.5.6 0 1.1 0 1.6.1s.9.2 1.3.4.8.3 1.2.6c.3.2.7.5 1 .7l-.7 1c-.1.2-.2.3-.4.3s-.3 0-.5-.1l-.6-.3c-.2-.1-.5-.2-.7-.3-.3-.1-.6-.2-1-.3s-.8-.1-1.3-.1c-.7 0-1.4.1-2 .4-.6.2-1.1.6-1.5 1-.4.5-.8 1-1 1.6-.2.7-.3 1.4-.3 2.2s.1 1.6.4 2.2c.2.7.6 1.2 1 1.7s1 .8 1.6 1 1.3.4 2.1.4c.6 0 1.1-.1 1.5-.2.5-.1.9-.3 1.3-.5v-2.8h-2c-.2 0-.3 0-.3-.1-.1-.1-.1-.2-.1-.3v-1.3h4.5zM329.5 804.5h-2.3v-14.1h2.3v14.1zM347.8 792.4h-4.4v12.2h-2.3v-12.2h-4.4v-1.9h11.1v1.9zM365.5 804.5h-1.8c-.2 0-.4 0-.5-.2-.1-.1-.2-.2-.3-.4l-1.2-3.1h-6.1l-1.2 3.1c0 .1-.1.2-.3.4s-.3.2-.5.2H352l5.6-14.1h2.3l5.6 14.1zm-4.4-5.2-1.9-5.2c-.2-.4-.3-.9-.5-1.5-.1.3-.2.6-.2.8-.1.3-.2.5-.2.7l-1.9 5.1 4.7.1zM380.5 802.6v1.9h-8.1v-14.1h2.3v12.2h5.8z"/><g><path d="m70.4 1017.3 41-53.3h18.9v93.2h-24.4v-53.8h-1l-29.4 40.7H64l-29.4-40.7h-1v53.8H9.3V964h18.9l41 53.3h1.2zM154.7 1006.7v-42.6h25.9v39.2c0 17.4 8 32.3 27.2 32.3 19.4 0 27.4-14.9 27.4-32.3v-39.2h25.9v42.6c0 29.8-19.2 51.6-53.3 51.6-37.2.1-53.1-21.9-53.1-51.6zM345.5 1057.2h-25.1V985h-34.9v-21h95.1v21h-35.1v72.2z"/></g><path d="M246.3 825.4v14.9h-14.9v-14.9h-9.8v14.9h-14.9v-14.9h-34.5v14.9h-14.9v-14.9h-34.5v14.9h-14.9v-14.9H48.5v14.9H33.6v-14.9H9.2v74.2h14.6v14.9H9.2v24.7h148v-14.9h14.9v14.9h34.5v-14.9h14.9v14.9h9.8v-14.9h14.9v14.9h134.3V825.4H246.3zm-173 89h-15v-14.9h14.9v14.9h.1zm0-24.7h-15v-14.9h14.9v14.9h.1zm24.7 0H83.1v-14.9H98v14.9zm24.7 0h-14.9v-14.9h14.9v14.9zm0-24.7h-14.9v-14.9h14.9V865zm24.7 49.4h-14.9v-14.9h14.9v14.9zm0-24.7h-14.9v-14.9h14.9v14.9zm0-24.7h-14.9v-14.9h14.9V865zm24.8 49.4h-14.9v-14.9h14.9v14.9zm0-49.4h-14.9v-14.9h14.9V865zm24.7 49.4H182v-14.9h14.9v14.9zm0-24.7H182v-14.9h14.9v14.9zm0-24.7H182v-14.9h14.9V865zm9.8-14.9h14.9V865h-14.9v-14.9zm0 24.7h14.9v14.9h-14.9v-14.9zm14.9 39.6h-14.9v-14.9h14.9v14.9zm9.8-64.3h14.9V865h-14.9v-14.9zm0 24.7h14.9v14.9h-14.9v-14.9zm14.9 39.6h-14.9v-14.9h14.9v14.9z"/></g><g><path d="m70.4 204.2 41-53.3h18.9v93.2h-24.4v-53.8h-1L75.5 231H64l-29.4-40.7h-1v53.8H9.3v-93.2h18.9l41 53.3h1.2zM154.7 193.6V151h25.9v39.2c0 17.4 8 32.3 27.2 32.3 19.4 0 27.4-14.9 27.4-32.3V151h25.9v42.6c0 29.8-19.2 51.6-53.3 51.6-37.2.1-53.1-21.9-53.1-51.6zM345.5 244.1h-25.1v-72.2h-34.9v-21h95.1v21h-35.1v72.2z"/></g><path class="st0" d="M246.3 12.3v14.9h-14.9V12.3h-9.8v14.9h-14.9V12.3h-34.5v14.9h-14.9V12.3h-34.5v14.9h-14.9V12.3H48.5v14.9H33.6V12.3H9.2v74.2h14.6v14.9H9.2v24.7h148v-14.9h14.9v14.9h34.5v-14.9h14.9v14.9h9.8v-14.9h14.9v14.9h134.3V12.3H246.3zm-173 89.1h-15V86.5h14.9v14.9h.1zm0-24.8h-15V61.7h14.9v14.9h.1zm24.7 0H83.1V61.7H98v14.9zm24.7 0h-14.9V61.7h14.9v14.9zm0-24.7h-14.9V37h14.9v14.9zm24.7 49.5h-14.9V86.5h14.9v14.9zm0-24.8h-14.9V61.7h14.9v14.9zm0-24.7h-14.9V37h14.9v14.9zm24.8 49.5h-14.9V86.5h14.9v14.9zm0-49.5h-14.9V37h14.9v14.9zm24.7 49.5H182V86.5h14.9v14.9zm0-24.8H182V61.7h14.9v14.9zm0-24.7H182V37h14.9v14.9zm9.8-14.9h14.9v14.9h-14.9V37zm0 24.7h14.9v14.9h-14.9V61.7zm14.9 39.7h-14.9V86.5h14.9v14.9zm9.8-64.4h14.9v14.9h-14.9V37zm0 24.7h14.9v14.9h-14.9V61.7zm14.9 39.7h-14.9V86.5h14.9v14.9z"/></svg>